<svg width="55" height="55" viewBox="0 0 55 55" fill="none" xmlns="http://www.w3.org/2000/svg">
<mask id="mask0_2865_23688" style="mask-type:alpha" maskUnits="userSpaceOnUse" x="0" y="0" width="55" height="55">
<rect x="0.46228" y="0.200928" width="54" height="54" fill="#D9D9D9"/>
</mask>
<g mask="url(#mask0_2865_23688)">
<path d="M28.2567 28.4915C28.3002 33.2347 24.4832 37.1138 19.74 37.1511C24.4832 37.1076 28.3623 40.9245 28.3996 45.6678C28.3561 40.9245 32.1731 37.0454 36.9163 37.0081C32.1731 37.0516 28.294 33.2347 28.2567 28.4915Z" fill="#232529"/>
<path d="M43.7152 4.91602H11.2092C9.12555 4.91602 7.4364 6.60402 7.4364 8.68628C7.4364 10.7685 9.12555 12.4565 11.2092 12.4565H43.7152C45.7989 12.4565 47.488 10.7685 47.488 8.68628C47.488 6.60402 45.7989 4.91602 43.7152 4.91602Z" fill="#232529"/>
<path d="M11.2093 49.4858C9.17892 49.4858 7.53409 47.841 7.53409 45.8106V39.735C7.53409 27.9539 17.1152 18.3728 28.8912 18.3728H39.7316C41.762 18.3728 43.4068 20.0176 43.4068 22.048C43.4068 24.0783 41.762 25.7231 39.7316 25.7231H28.8912C21.1708 25.7231 14.8896 32.0043 14.8896 39.7248V45.8004C14.8896 47.8307 13.2447 49.4755 11.2144 49.4755L11.2093 49.4858Z" fill="#232529"/>
</g>
</svg>
